<svg id="svg" version="1.1" xmlns="http://www.w3.org/2000/svg" xmlns:xlink="http://www.w3.org/1999/xlink" width="400" height="400" viewBox="0, 0, 400,400"><g id="svgg"><path id="path0" d="M265.157 129.228 C 257.868 130.253,250.301 134.516,246.205 139.903 C 244.238 142.490,190.477 228.277,189.118 230.997 C 184.321 240.599,185.904 253.398,192.966 262.120 C 204.317 276.137,226.459 276.265,238.005 262.380 C 239.755 260.277,292.293 176.496,294.660 172.037 C 305.784 151.073,288.469 125.948,265.157 129.228 " stroke="none" fill="#fccc04" fill-rule="evenodd"></path><path id="path1" d="M171.713 130.607 C 159.557 133.213,158.369 134.507,137.626 167.706 C 128.682 182.021,121.247 193.602,121.104 193.441 C 120.961 193.280,117.061 186.004,112.437 177.273 C 100.986 155.651,99.724 153.951,92.676 150.642 C 71.050 140.490,48.221 162.917,58.456 184.259 C 60.277 188.056,98.945 260.997,100.571 263.704 C 107.059 274.499,122.105 278.772,133.519 273.061 C 138.214 270.711,146.239 263.908,148.829 260.081 C 152.053 255.318,202.574 174.461,203.609 172.407 C 214.459 150.890,195.147 125.581,171.713 130.607 M302.339 215.905 C 278.874 219.630,269.025 246.580,284.919 263.571 C 301.855 281.676,332.442 271.829,335.615 247.251 C 337.921 229.387,320.541 213.015,302.339 215.905 " stroke="none" fill="#1484c4" fill-rule="evenodd"></path></g></svg>