<svg id="svg" version="1.1" xmlns="http://www.w3.org/2000/svg" xmlns:xlink="http://www.w3.org/1999/xlink" width="400" height="92.59259259259258" viewBox="0, 0, 400,92.59259259259258"><g id="svgg"><path id="path0" d="M316.996 11.204 C 309.860 13.694,311.311 24.034,318.876 24.601 C 324.279 25.006,328.041 20.846,326.751 15.892 C 325.736 11.996,321.104 9.770,316.996 11.204 M219.208 11.443 C 219.043 11.510,219.000 18.349,219.000 44.849 L 219.000 78.171 224.875 78.127 L 230.750 78.083 230.792 75.417 C 230.850 71.828,231.184 71.433,232.623 73.250 C 235.792 77.249,239.558 78.916,245.417 78.914 C 257.981 78.910,264.934 70.072,264.884 54.167 C 264.840 39.891,259.294 31.461,248.936 29.923 C 242.300 28.938,237.002 30.609,233.042 34.935 C 230.763 37.425,230.932 38.281,230.833 23.714 L 230.750 11.417 225.083 11.387 C 221.967 11.371,219.323 11.396,219.208 11.443 M357.500 29.780 C 343.626 31.198,335.770 41.609,336.981 56.971 C 338.099 71.148,346.344 78.893,360.333 78.906 C 373.071 78.918,381.243 72.177,383.357 59.917 C 383.627 58.349,383.732 51.282,383.506 49.917 C 383.045 47.139,382.936 46.652,382.365 44.833 C 379.099 34.434,369.402 28.563,357.500 29.780 M297.917 30.273 C 293.696 31.130,291.172 33.031,289.276 36.780 C 288.772 37.776,288.687 37.851,288.196 37.723 C 287.839 37.629,287.833 37.576,287.831 34.272 C 287.829 32.427,287.768 30.822,287.695 30.706 C 287.590 30.542,286.336 30.505,281.989 30.539 L 276.417 30.583 276.374 54.377 L 276.332 78.171 282.208 78.127 L 288.083 78.083 288.184 64.833 C 288.245 56.822,288.352 51.254,288.456 50.750 C 288.888 48.651,288.997 48.203,289.245 47.506 C 290.395 44.278,292.327 42.345,295.382 41.366 C 296.786 40.916,300.744 40.970,302.202 41.458 C 304.239 42.142,304.128 42.274,304.905 38.250 C 305.241 36.508,305.585 34.783,305.669 34.417 C 306.030 32.845,306.188 31.796,306.099 31.565 C 305.747 30.646,300.309 29.787,297.917 30.273 M313.768 30.764 C 313.636 31.108,313.636 77.558,313.768 77.903 C 313.857 78.136,314.535 78.167,319.684 78.167 L 325.500 78.167 325.500 54.333 L 325.500 30.500 319.684 30.500 C 314.535 30.500,313.857 30.530,313.768 30.764 M245.556 40.236 C 249.089 41.422,251.290 44.185,252.139 48.500 C 252.600 50.848,252.667 51.580,252.666 54.319 C 252.663 64.213,249.135 68.993,241.833 68.995 C 233.421 68.997,228.956 60.555,231.262 49.008 C 232.703 41.795,238.890 37.998,245.556 40.236 M362.594 39.844 C 368.518 40.903,371.491 45.746,371.498 54.348 C 371.507 64.064,367.697 69.010,360.215 68.997 C 352.586 68.984,348.980 63.949,349.207 53.632 C 349.288 49.924,349.521 48.451,350.386 46.167 C 352.223 41.319,357.002 38.843,362.594 39.844 " stroke="none" fill="#fc1515" fill-rule="evenodd"></path><path id="path1" d="M122.167 8.184 C 118.713 8.475,115.779 9.900,113.229 12.527 C 112.061 13.729,111.664 14.323,106.339 22.833 C 103.855 26.804,103.239 27.787,99.030 34.500 C 96.875 37.938,93.613 43.145,91.783 46.072 C 89.953 48.999,87.978 52.132,87.394 53.035 C 86.811 53.937,86.333 54.722,86.333 54.780 C 86.333 54.838,86.163 55.117,85.954 55.401 C 85.010 56.684,83.333 59.752,83.333 60.196 C 83.333 60.326,83.269 60.505,83.190 60.592 C 82.461 61.394,82.151 65.869,82.655 68.303 C 85.032 79.781,99.243 83.967,107.417 75.596 C 108.790 74.189,109.317 73.420,113.534 66.667 C 114.822 64.604,116.419 62.054,117.083 61.000 C 117.747 59.946,119.135 57.733,120.169 56.083 C 123.902 50.123,126.258 46.370,127.794 43.941 C 128.655 42.579,129.485 41.252,129.638 40.992 C 129.791 40.732,131.314 38.284,133.021 35.551 C 137.077 29.060,137.394 28.477,137.857 26.667 C 140.482 16.406,132.747 7.294,122.167 8.184 M319.042 10.788 C 319.385 10.824,319.948 10.824,320.292 10.788 C 320.635 10.752,320.354 10.723,319.667 10.723 C 318.979 10.723,318.698 10.752,319.042 10.788 M316.887 11.054 C 316.059 11.360,316.028 11.525,316.848 11.262 C 318.113 10.856,318.106 10.860,317.750 10.859 C 317.567 10.859,317.178 10.947,316.887 11.054 M219.224 11.294 C 219.048 11.406,225.440 11.399,229.083 11.283 C 229.908 11.257,228.071 11.221,225.000 11.204 C 221.929 11.186,219.330 11.227,219.224 11.294 M322.833 11.417 C 323.063 11.548,323.325 11.655,323.417 11.655 C 323.508 11.655,323.396 11.548,323.167 11.417 C 322.938 11.286,322.675 11.178,322.583 11.178 C 322.492 11.178,322.604 11.286,322.833 11.417 M230.833 23.689 C 230.906 34.400,230.949 36.033,231.167 36.170 C 231.492 36.376,231.788 36.375,231.915 36.169 C 231.974 36.074,231.907 36.046,231.757 36.104 C 230.990 36.398,231.000 36.566,231.000 23.656 C 231.000 16.981,230.944 11.485,230.875 11.442 C 230.806 11.400,230.787 16.911,230.833 23.689 M218.915 44.833 C 218.915 63.121,218.935 70.602,218.958 61.458 C 218.982 52.315,218.982 37.352,218.958 28.208 C 218.935 19.065,218.915 26.546,218.915 44.833 M315.051 12.095 L 314.583 12.524 315.125 12.147 C 315.423 11.940,315.667 11.747,315.667 11.719 C 315.667 11.587,315.482 11.700,315.051 12.095 M324.320 12.227 C 324.542 12.501,325.167 12.914,325.167 12.787 C 325.167 12.755,324.923 12.551,324.625 12.333 C 324.290 12.087,324.173 12.047,324.320 12.227 M325.849 13.833 C 326.332 14.582,326.333 14.584,326.333 14.403 C 326.332 14.319,326.138 14.025,325.902 13.750 L 325.472 13.250 325.849 13.833 M185.750 14.163 C 179.027 14.787,172.711 17.997,168.733 22.809 C 167.649 24.121,167.459 23.701,171.006 27.827 C 174.924 32.384,174.735 32.285,176.025 30.444 C 181.776 22.239,195.051 21.895,196.771 29.906 C 197.510 33.345,196.416 36.718,194.025 38.378 C 191.823 39.907,191.147 40.037,185.000 40.123 C 181.734 40.168,179.671 40.261,179.542 40.368 C 179.310 40.561,179.233 49.257,179.461 49.603 C 179.545 49.730,181.431 49.818,185.500 49.884 C 193.090 50.007,194.557 50.336,196.807 52.419 C 199.589 54.995,200.251 60.461,198.230 64.175 C 195.446 69.289,184.909 70.045,180.086 65.476 C 178.581 64.051,176.333 60.215,176.333 59.072 C 176.333 58.709,175.834 58.333,175.350 58.333 C 174.941 58.333,166.121 62.313,165.784 62.649 C 165.656 62.777,165.880 64.035,166.157 64.750 C 166.229 64.933,166.382 65.383,166.499 65.750 C 168.276 71.348,173.220 75.935,179.500 77.815 C 180.505 78.115,181.020 78.231,183.250 78.652 C 196.553 81.166,208.369 75.768,211.128 65.917 C 213.815 56.323,210.103 47.522,202.127 44.581 C 200.642 44.033,200.642 43.414,202.129 42.462 C 208.848 38.158,211.117 30.096,207.678 22.750 C 204.827 16.660,196.016 13.210,185.750 14.163 M324.759 22.780 C 324.213 23.293,323.913 23.634,324.092 23.536 C 324.408 23.364,325.978 21.827,325.826 21.839 C 325.784 21.843,325.304 22.266,324.759 22.780 M314.615 23.018 C 314.816 23.237,315.228 23.560,315.532 23.734 C 316.226 24.134,316.132 24.032,315.083 23.245 C 314.592 22.877,314.400 22.784,314.615 23.018 M319.125 24.787 C 319.423 24.824,319.910 24.824,320.208 24.787 C 320.506 24.750,320.262 24.720,319.667 24.720 C 319.071 24.720,318.827 24.750,319.125 24.787 M244.875 29.623 C 245.310 29.657,246.023 29.657,246.458 29.623 C 246.894 29.588,246.537 29.560,245.667 29.560 C 244.796 29.560,244.440 29.588,244.875 29.623 M359.375 29.623 C 359.902 29.656,360.765 29.656,361.292 29.623 C 361.819 29.590,361.387 29.563,360.333 29.563 C 359.279 29.563,358.848 29.590,359.375 29.623 M241.917 29.842 C 241.588 29.931,241.759 29.946,242.417 29.885 C 242.967 29.833,243.448 29.763,243.486 29.729 C 243.610 29.618,242.431 29.702,241.917 29.842 M247.681 29.728 C 247.719 29.762,248.237 29.831,248.833 29.881 C 249.516 29.939,249.732 29.924,249.417 29.840 C 248.907 29.704,247.554 29.616,247.681 29.728 M356.877 29.786 C 357.131 29.825,357.506 29.824,357.711 29.784 C 357.916 29.744,357.708 29.713,357.250 29.714 C 356.792 29.716,356.624 29.748,356.877 29.786 M362.681 29.728 C 362.719 29.762,363.313 29.832,364.000 29.883 C 364.927 29.952,365.078 29.938,364.583 29.831 C 363.916 29.686,362.550 29.612,362.681 29.728 M299.458 30.123 C 299.940 30.157,300.727 30.157,301.208 30.123 C 301.690 30.089,301.296 30.062,300.333 30.062 C 299.371 30.062,298.977 30.089,299.458 30.123 M251.083 30.333 C 251.267 30.412,251.529 30.477,251.667 30.477 C 251.824 30.477,251.793 30.424,251.583 30.333 C 251.400 30.255,251.137 30.190,251.000 30.190 C 250.842 30.190,250.873 30.243,251.083 30.333 M276.244 30.708 C 276.200 30.823,276.184 41.529,276.207 54.500 L 276.250 78.083 276.333 54.292 C 276.379 41.206,276.396 30.500,276.370 30.500 C 276.344 30.500,276.287 30.594,276.244 30.708 M295.750 30.667 C 295.540 30.757,295.509 30.810,295.667 30.810 C 295.804 30.810,296.067 30.745,296.250 30.667 C 296.460 30.576,296.491 30.523,296.333 30.523 C 296.196 30.523,295.933 30.588,295.750 30.667 M367.917 30.667 C 368.100 30.745,368.363 30.810,368.500 30.810 C 368.658 30.810,368.627 30.757,368.417 30.667 C 368.233 30.588,367.971 30.523,367.833 30.523 C 367.676 30.523,367.707 30.576,367.917 30.667 M325.581 54.333 C 325.581 67.396,325.601 72.740,325.625 66.208 C 325.649 59.677,325.649 48.990,325.625 42.458 C 325.601 35.927,325.581 41.271,325.581 54.333 M305.625 31.165 C 305.970 31.375,306.167 31.627,306.167 31.859 C 306.167 32.059,306.213 32.176,306.270 32.119 C 306.486 31.902,306.156 31.216,305.746 31.029 C 305.086 30.728,305.023 30.798,305.625 31.165 M350.917 31.077 C 350.273 31.372,350.572 31.376,351.333 31.083 C 351.654 30.960,351.804 30.856,351.667 30.854 C 351.529 30.851,351.192 30.951,350.917 31.077 M237.292 31.345 C 236.948 31.526,236.667 31.712,236.667 31.757 C 236.667 31.832,237.983 31.216,238.153 31.063 C 238.345 30.889,237.844 31.053,237.292 31.345 M253.347 31.064 C 253.517 31.219,255.500 32.163,255.500 32.088 C 255.500 31.995,253.575 31.000,253.394 31.000 C 253.330 31.000,253.309 31.029,253.347 31.064 M294.125 31.345 C 293.781 31.526,293.500 31.712,293.500 31.757 C 293.500 31.832,294.816 31.216,294.986 31.063 C 295.178 30.889,294.677 31.053,294.125 31.345 M371.256 31.897 C 372.084 32.289,373.209 32.888,373.756 33.228 C 374.417 33.638,374.583 33.703,374.250 33.420 C 373.725 32.973,370.236 31.161,369.929 31.175 C 369.830 31.179,370.428 31.504,371.256 31.897 M292.391 32.603 L 291.583 33.372 292.333 32.746 C 293.339 31.906,293.416 31.833,293.299 31.833 C 293.244 31.833,292.835 32.179,292.391 32.603 M255.750 32.277 C 256.176 32.681,257.222 33.363,256.970 33.072 C 256.815 32.895,256.440 32.608,256.136 32.435 C 255.832 32.261,255.658 32.190,255.750 32.277 M234.123 33.708 C 232.941 34.863,232.935 34.873,233.985 33.928 C 234.589 33.384,235.193 32.840,235.327 32.720 C 235.462 32.599,235.524 32.500,235.465 32.500 C 235.406 32.500,234.802 33.044,234.123 33.708 M346.289 33.423 C 345.947 33.655,345.667 33.881,345.667 33.925 C 345.667 33.969,345.967 33.806,346.333 33.564 C 346.916 33.178,347.112 33.000,346.955 33.000 C 346.931 33.000,346.631 33.190,346.289 33.423 M257.917 34.000 C 258.275 34.367,258.605 34.667,258.651 34.667 C 258.697 34.667,258.441 34.367,258.083 34.000 C 257.725 33.633,257.395 33.333,257.349 33.333 C 257.303 33.333,257.559 33.633,257.917 34.000 M343.413 35.875 L 342.083 37.250 343.458 35.921 C 344.735 34.686,344.909 34.500,344.788 34.500 C 344.763 34.500,344.144 35.119,343.413 35.875 M377.262 36.016 C 377.530 36.345,377.784 36.587,377.825 36.552 C 377.866 36.518,377.646 36.248,377.337 35.953 L 376.774 35.417 377.262 36.016 M261.016 37.740 C 261.209 38.066,261.398 38.333,261.437 38.333 C 261.556 38.333,261.015 37.362,260.834 37.251 C 260.742 37.193,260.824 37.414,261.016 37.740 M341.810 37.625 C 341.331 38.204,341.127 38.500,341.210 38.500 C 341.256 38.500,341.494 38.237,341.739 37.917 C 342.193 37.321,342.248 37.097,341.810 37.625 M379.167 38.333 C 379.362 38.608,379.560 38.833,379.606 38.833 C 379.652 38.833,379.529 38.608,379.333 38.333 C 379.138 38.058,378.940 37.833,378.894 37.833 C 378.848 37.833,378.971 38.058,379.167 38.333 M261.750 39.000 C 261.892 39.275,262.046 39.500,262.092 39.500 C 262.138 39.500,262.059 39.275,261.917 39.000 C 261.774 38.725,261.621 38.500,261.575 38.500 C 261.529 38.500,261.608 38.725,261.750 39.000 M380.250 40.000 C 380.392 40.275,380.546 40.500,380.592 40.500 C 380.638 40.500,380.559 40.275,380.417 40.000 C 380.274 39.725,380.121 39.500,380.075 39.500 C 380.029 39.500,380.108 39.725,380.250 40.000 M241.042 39.789 C 241.477 39.824,242.190 39.824,242.625 39.789 C 243.060 39.755,242.704 39.727,241.833 39.727 C 240.963 39.727,240.606 39.755,241.042 39.789 M359.458 39.790 C 359.940 39.823,360.727 39.823,361.208 39.790 C 361.690 39.756,361.296 39.728,360.333 39.728 C 359.371 39.728,358.977 39.756,359.458 39.790 M238.333 40.174 C 238.151 40.298,238.218 40.313,238.583 40.232 C 239.196 40.095,239.329 39.999,238.903 40.003 C 238.727 40.004,238.471 40.081,238.333 40.174 M363.181 40.060 C 363.219 40.093,363.475 40.170,363.750 40.232 C 364.115 40.313,364.183 40.298,364.000 40.174 C 363.775 40.022,363.013 39.916,363.181 40.060 M365.833 41.100 C 366.429 41.428,367.367 42.121,367.917 42.640 L 368.917 43.583 368.000 42.614 C 367.199 41.767,365.335 40.496,364.901 40.502 C 364.818 40.503,365.238 40.772,365.833 41.100 M247.667 41.282 C 247.896 41.445,248.533 41.990,249.083 42.492 L 250.083 43.406 249.207 42.488 C 248.725 41.983,248.088 41.439,247.791 41.278 C 247.270 40.996,247.265 40.996,247.667 41.282 M297.708 41.123 C 298.235 41.156,299.098 41.156,299.625 41.123 C 300.152 41.090,299.721 41.063,298.667 41.063 C 297.612 41.063,297.181 41.090,297.708 41.123 M295.583 41.333 C 295.159 41.516,295.597 41.516,296.167 41.333 C 296.502 41.226,296.518 41.199,296.250 41.195 C 296.067 41.192,295.767 41.255,295.583 41.333 M301.167 41.333 C 301.737 41.516,302.175 41.516,301.750 41.333 C 301.567 41.255,301.267 41.192,301.083 41.195 C 300.815 41.199,300.832 41.226,301.167 41.333 M353.083 42.102 L 352.417 42.698 353.125 42.168 C 353.735 41.712,353.955 41.493,353.792 41.502 C 353.769 41.504,353.450 41.773,353.083 42.102 M290.256 45.264 C 290.100 45.502,290.002 45.724,290.037 45.759 C 290.072 45.794,290.232 45.600,290.393 45.328 C 290.752 44.720,290.645 44.670,290.256 45.264 M264.705 49.000 C 264.705 49.321,264.740 49.452,264.782 49.292 C 264.823 49.131,264.823 48.869,264.782 48.708 C 264.740 48.548,264.705 48.679,264.705 49.000 M337.039 50.000 C 337.039 50.321,337.073 50.452,337.115 50.292 C 337.157 50.131,337.157 49.869,337.115 49.708 C 337.073 49.548,337.039 49.679,337.039 50.000 M264.883 51.667 C 264.883 52.171,264.915 52.377,264.953 52.125 C 264.991 51.873,264.991 51.460,264.953 51.208 C 264.915 50.956,264.883 51.163,264.883 51.667 M252.550 51.833 C 252.550 52.337,252.581 52.544,252.619 52.292 C 252.658 52.040,252.658 51.627,252.619 51.375 C 252.581 51.123,252.550 51.329,252.550 51.833 M349.217 51.833 C 349.217 52.337,349.248 52.544,349.286 52.292 C 349.324 52.040,349.324 51.627,349.286 51.375 C 349.248 51.123,349.217 51.329,349.217 51.833 M336.875 52.083 C 336.877 52.450,336.911 52.580,336.951 52.373 C 336.991 52.166,336.990 51.866,336.948 51.706 C 336.906 51.547,336.874 51.717,336.875 52.083 M383.735 54.333 C 383.735 55.846,383.760 56.465,383.791 55.708 C 383.822 54.952,383.822 53.715,383.791 52.958 C 383.760 52.202,383.735 52.821,383.735 54.333 M371.400 54.333 C 371.400 55.663,371.425 56.206,371.457 55.542 C 371.489 54.877,371.489 53.790,371.457 53.125 C 371.425 52.460,371.400 53.004,371.400 54.333 M288.209 52.750 C 288.211 53.117,288.245 53.247,288.285 53.040 C 288.324 52.832,288.323 52.532,288.281 52.373 C 288.239 52.214,288.207 52.383,288.209 52.750 M230.723 54.333 C 230.723 55.021,230.752 55.302,230.788 54.958 C 230.824 54.615,230.824 54.052,230.788 53.708 C 230.752 53.365,230.723 53.646,230.723 54.333 M265.053 54.333 C 265.053 54.929,265.084 55.173,265.121 54.875 C 265.158 54.577,265.158 54.090,265.121 53.792 C 265.084 53.494,265.053 53.737,265.053 54.333 M336.709 54.417 C 336.711 54.783,336.745 54.914,336.785 54.706 C 336.824 54.499,336.823 54.199,336.781 54.040 C 336.739 53.880,336.707 54.050,336.709 54.417 M349.217 56.833 C 349.217 57.337,349.248 57.544,349.286 57.292 C 349.324 57.040,349.324 56.627,349.286 56.375 C 349.248 56.123,349.217 56.329,349.217 56.833 M252.548 56.917 C 252.549 57.375,252.581 57.543,252.620 57.289 C 252.658 57.036,252.657 56.661,252.617 56.456 C 252.578 56.251,252.546 56.458,252.548 56.917 M264.883 57.000 C 264.883 57.504,264.915 57.710,264.953 57.458 C 264.991 57.206,264.991 56.794,264.953 56.542 C 264.915 56.290,264.883 56.496,264.883 57.000 M336.875 56.750 C 336.877 57.117,336.911 57.247,336.951 57.040 C 336.991 56.832,336.990 56.532,336.948 56.373 C 336.906 56.214,336.874 56.383,336.875 56.750 M337.039 58.833 C 337.039 59.154,337.073 59.285,337.115 59.125 C 337.157 58.965,337.157 58.702,337.115 58.542 C 337.073 58.381,337.039 58.512,337.039 58.833 M383.095 61.095 C 383.034 61.339,383.016 61.571,383.055 61.611 C 383.094 61.650,383.177 61.482,383.238 61.238 C 383.299 60.994,383.317 60.762,383.278 60.723 C 383.239 60.683,383.157 60.851,383.095 61.095 M233.624 65.250 C 233.814 65.525,234.218 65.975,234.522 66.250 C 234.929 66.619,234.883 66.532,234.344 65.917 C 233.361 64.793,233.217 64.659,233.624 65.250 M352.750 66.333 C 353.108 66.700,353.438 67.000,353.484 67.000 C 353.530 67.000,353.275 66.700,352.917 66.333 C 352.559 65.967,352.228 65.667,352.182 65.667 C 352.137 65.667,352.392 65.967,352.750 66.333 M381.194 66.924 C 380.914 67.537,380.968 67.667,381.270 67.110 C 381.411 66.850,381.495 66.606,381.457 66.568 C 381.419 66.530,381.300 66.690,381.194 66.924 M235.364 66.928 C 235.518 67.105,235.893 67.392,236.197 67.565 C 236.850 67.938,236.678 67.753,235.750 67.085 C 235.362 66.806,235.201 66.740,235.364 66.928 M246.833 67.833 C 246.512 68.009,246.310 68.156,246.383 68.160 C 246.560 68.169,247.500 67.680,247.500 67.579 C 247.500 67.470,247.490 67.474,246.833 67.833 M365.500 67.833 C 365.179 68.009,364.977 68.156,365.050 68.160 C 365.227 68.169,366.167 67.680,366.167 67.579 C 366.167 67.470,366.157 67.474,365.500 67.833 M240.875 68.956 C 241.402 68.990,242.265 68.990,242.792 68.956 C 243.319 68.923,242.887 68.896,241.833 68.896 C 240.779 68.896,240.348 68.923,240.875 68.956 M359.298 68.957 C 359.875 68.990,360.775 68.989,361.298 68.956 C 361.822 68.923,361.350 68.897,360.250 68.897 C 359.150 68.897,358.722 68.924,359.298 68.957 M341.161 70.241 C 341.441 70.649,341.751 71.032,341.848 71.092 C 341.945 71.152,341.749 70.819,341.413 70.351 C 340.663 69.306,340.455 69.216,341.161 70.241 M342.000 71.385 C 342.000 71.414,342.244 71.658,342.542 71.927 L 343.083 72.417 342.594 71.875 C 342.138 71.370,342.000 71.257,342.000 71.385 M377.078 72.875 L 376.083 73.917 377.125 72.922 C 377.698 72.375,378.167 71.906,378.167 71.880 C 378.167 71.757,378.002 71.907,377.078 72.875 M231.029 72.549 C 230.826 72.793,230.676 78.182,230.875 78.058 C 230.944 78.015,231.000 76.800,231.000 75.357 C 231.000 73.539,231.061 72.672,231.200 72.533 C 231.310 72.423,231.357 72.333,231.304 72.333 C 231.251 72.333,231.127 72.430,231.029 72.549 M258.412 74.042 L 257.250 75.250 258.458 74.088 C 259.123 73.449,259.667 72.905,259.667 72.879 C 259.667 72.757,259.492 72.919,258.412 74.042 M233.167 74.083 C 233.478 74.404,233.770 74.667,233.815 74.667 C 233.861 74.667,233.644 74.404,233.333 74.083 C 233.022 73.762,232.730 73.500,232.685 73.500 C 232.639 73.500,232.856 73.762,233.167 74.083 M373.966 75.311 C 372.780 76.082,372.520 76.341,373.461 75.815 C 374.133 75.438,375.180 74.670,375.000 74.686 C 374.954 74.690,374.489 74.971,373.966 75.311 M234.485 75.389 C 234.729 75.693,235.667 76.407,235.667 76.289 C 235.667 76.253,235.348 75.969,234.958 75.660 C 234.569 75.350,234.356 75.228,234.485 75.389 M256.500 75.687 C 255.919 76.196,255.919 76.197,256.453 75.841 C 256.748 75.645,257.034 75.413,257.088 75.326 C 257.249 75.065,257.116 75.147,256.500 75.687 M347.667 76.082 C 347.667 76.195,349.354 77.035,349.429 76.960 C 349.463 76.926,349.080 76.697,348.579 76.451 C 348.077 76.205,347.667 76.039,347.667 76.082 M253.833 77.250 C 253.421 77.471,253.143 77.655,253.215 77.659 C 253.392 77.669,254.667 77.014,254.667 76.913 C 254.667 76.803,254.674 76.800,253.833 77.250 M236.833 77.082 C 236.833 77.196,237.854 77.702,237.930 77.625 C 237.966 77.589,237.734 77.435,237.415 77.283 C 237.095 77.130,236.833 77.040,236.833 77.082 M350.000 77.250 C 350.229 77.381,350.492 77.488,350.583 77.488 C 350.675 77.488,350.563 77.381,350.333 77.250 C 350.104 77.119,349.842 77.012,349.750 77.012 C 349.658 77.012,349.771 77.119,350.000 77.250 M238.750 78.001 C 239.117 78.170,239.642 78.354,239.917 78.410 C 240.192 78.466,239.929 78.323,239.333 78.092 C 238.075 77.604,237.791 77.560,238.750 78.001 M368.333 77.917 C 368.012 78.040,367.863 78.141,368.000 78.141 C 368.137 78.141,368.512 78.040,368.833 77.917 C 369.154 77.793,369.304 77.692,369.167 77.692 C 369.029 77.692,368.654 77.793,368.333 77.917 M313.709 78.000 C 313.768 78.216,314.568 78.250,319.597 78.253 L 325.417 78.257 319.675 78.209 C 315.350 78.174,313.898 78.111,313.787 77.956 C 313.681 77.805,313.660 77.817,313.709 78.000 M282.250 78.167 L 276.417 78.257 282.198 78.295 C 285.915 78.320,288.017 78.274,288.083 78.167 C 288.140 78.075,288.163 78.017,288.135 78.038 C 288.107 78.060,285.458 78.117,282.250 78.167 M222.031 78.291 C 223.561 78.319,226.111 78.319,227.698 78.291 C 229.285 78.264,228.033 78.242,224.917 78.241 C 221.800 78.241,220.501 78.264,222.031 78.291 M250.917 78.333 C 250.707 78.424,250.676 78.477,250.833 78.477 C 250.971 78.477,251.233 78.412,251.417 78.333 C 251.627 78.243,251.658 78.190,251.500 78.190 C 251.362 78.190,251.100 78.255,250.917 78.333 M366.833 78.333 C 366.498 78.441,366.482 78.468,366.750 78.472 C 366.933 78.474,367.233 78.412,367.417 78.333 C 367.841 78.151,367.403 78.151,366.833 78.333 M240.833 78.667 C 241.063 78.740,241.400 78.800,241.583 78.800 C 241.847 78.800,241.830 78.772,241.500 78.667 C 241.271 78.593,240.933 78.533,240.750 78.533 C 240.486 78.533,240.503 78.561,240.833 78.667 M365.083 78.667 C 364.634 78.781,364.626 78.794,365.000 78.797 C 365.229 78.799,365.604 78.740,365.833 78.667 C 366.394 78.487,365.788 78.487,365.083 78.667 M242.294 78.951 C 242.501 78.991,242.801 78.990,242.960 78.948 C 243.120 78.906,242.950 78.874,242.583 78.875 C 242.217 78.877,242.086 78.911,242.294 78.951 M247.960 78.951 C 248.168 78.991,248.468 78.990,248.627 78.948 C 248.786 78.906,248.617 78.874,248.250 78.875 C 247.883 78.877,247.753 78.911,247.960 78.951 M356.625 78.951 C 356.831 78.991,357.169 78.991,357.375 78.951 C 357.581 78.911,357.412 78.879,357.000 78.879 C 356.587 78.879,356.419 78.911,356.625 78.951 M363.292 78.951 C 363.498 78.991,363.835 78.991,364.042 78.951 C 364.248 78.911,364.079 78.879,363.667 78.879 C 363.254 78.879,363.085 78.911,363.292 78.951 M244.382 79.124 C 245.004 79.156,245.979 79.156,246.549 79.123 C 247.118 79.091,246.608 79.064,245.417 79.065 C 244.225 79.065,243.759 79.092,244.382 79.124 M359.125 79.124 C 359.790 79.155,360.877 79.155,361.542 79.124 C 362.206 79.092,361.662 79.066,360.333 79.066 C 359.004 79.066,358.460 79.092,359.125 79.124 " stroke="none" fill="#fcc513" fill-rule="evenodd"></path><path id="path2" d="M76.667 8.681 C 73.252 8.948,70.181 10.384,67.519 12.960 C 66.546 13.901,63.000 18.987,63.000 19.440 C 63.000 19.489,62.785 19.841,62.522 20.223 C 62.049 20.910,61.076 22.453,57.254 28.583 C 56.168 30.325,55.041 32.125,54.750 32.583 C 54.458 33.042,53.335 34.842,52.253 36.583 C 51.171 38.325,50.162 39.883,50.010 40.046 C 49.696 40.381,49.892 40.672,47.963 37.000 C 47.410 35.946,46.676 34.558,46.333 33.917 C 45.773 32.872,44.446 30.375,41.948 25.667 C 38.493 19.156,33.009 16.411,26.676 18.021 C 18.865 20.007,14.734 29.273,18.567 36.212 C 18.944 36.895,19.381 37.718,21.419 41.583 C 22.269 43.195,24.803 47.957,26.786 51.667 C 27.154 52.354,27.830 53.629,28.290 54.500 C 29.110 56.052,30.101 57.925,31.334 60.250 C 31.674 60.892,32.385 62.242,32.913 63.250 C 33.442 64.258,34.080 65.458,34.333 65.917 C 34.823 66.807,35.289 67.678,37.588 72.000 C 39.841 76.234,40.415 77.026,42.333 78.554 C 47.170 82.406,52.973 82.317,58.616 78.303 C 62.164 75.779,62.683 75.155,67.118 68.071 C 68.646 65.630,70.064 63.376,72.249 59.917 C 73.695 57.625,75.103 55.375,75.376 54.917 C 75.649 54.458,76.679 52.808,77.664 51.250 C 78.649 49.692,80.489 46.767,81.753 44.750 C 83.018 42.733,84.740 39.996,85.580 38.667 C 89.533 32.415,90.498 30.845,90.959 29.917 C 96.098 19.563,88.169 7.783,76.667 8.681 M139.366 51.755 C 124.748 54.928,123.951 75.168,138.276 79.431 C 149.984 82.915,160.694 71.404,156.073 60.303 C 153.421 53.932,146.247 50.261,139.366 51.755 " stroke="none" fill="#2ca4fc" fill-rule="evenodd"></path></g></svg>